<svg width="20" height="22" viewBox="0 0 20 22" fill="none" xmlns="http://www.w3.org/2000/svg">
<path d="M0 17.4173V22H4.1661L16.4533 8.48406L12.2872 3.90135L0 17.4173ZM19.6751 4.94009C19.7781 4.82704 19.8598 4.69275 19.9156 4.54491C19.9713 4.39707 20 4.2386 20 4.07854C20 3.91849 19.9713 3.76001 19.9156 3.61218C19.8598 3.46434 19.7781 3.33005 19.6751 3.217L17.0755 0.357383C16.9727 0.244094 16.8506 0.154215 16.7162 0.0928902C16.5818 0.0315657 16.4377 0 16.2922 0C16.1467 0 16.0027 0.0315657 15.8683 0.0928902C15.7339 0.154215 15.6118 0.244094 15.509 0.357383L13.4759 2.59375L17.642 7.17646L19.6751 4.94009Z" fill="#3E4756"/>
</svg>
