<svg width="55" height="50" viewBox="0 0 55 50" fill="none" xmlns="http://www.w3.org/2000/svg">
<path d="M54.4092 24.3854C54.3102 23.7522 54.0625 23.181 53.753 22.6595C53.8025 22.0636 53.7654 21.4552 53.592 20.8592C53.4682 20.437 53.3196 20.0521 53.1338 19.6424C52.7747 18.885 52.4528 18.1152 52.168 17.3454C52.6509 16.7246 53.01 16.0417 53.171 15.4954C53.3815 14.8994 53.5053 14.2786 53.5548 13.6578L53.6168 12.7763C53.6539 12.2672 53.6787 11.7581 53.6787 11.2739C53.6787 10.9883 53.6911 10.6903 53.7158 10.3179L53.7777 9.69705C53.8273 9.26248 53.852 8.84033 53.852 8.40576C53.852 7.84703 53.7901 7.2883 53.691 6.76682C53.5301 5.95977 53.1957 5.20238 52.6881 4.49466C51.9699 3.51378 50.9916 2.80606 49.8277 2.43357C49.1466 2.21008 48.4408 2.08592 47.735 2.06109C46.9425 2.02384 46.1748 2.02384 45.4071 2.03626C44.7632 2.04867 44.1069 2.06109 43.6364 2.06109C42.8686 2.02384 42.1009 2.19767 41.3084 2.48324C41.0608 2.39632 40.8131 2.30941 40.5655 2.28458C40.2683 2.2225 39.9711 2.17283 39.6739 2.148C39.3891 2.12317 39.0919 2.11075 38.7948 2.11075L36.9993 2.06109C36.1325 2.06109 35.1914 2.148 34.1884 2.35908C33.6312 2.49565 33.1111 2.6819 32.5663 2.93022C32.4549 2.97989 32.3682 3.05438 32.2691 3.10405C32.1205 3.00472 32.0091 2.85572 31.8605 2.76881C30.9813 2.28458 29.9907 2.02384 28.9877 1.98659C28.5419 1.96176 28.1086 1.96176 27.6628 1.98659L23.0441 2.02384V2.40874C23.0069 2.42116 22.9821 2.44599 22.945 2.45841C22.9079 2.44599 22.8831 2.42116 22.8459 2.40874C22.1649 2.18525 21.4591 2.06109 20.7533 2.03626C19.9608 1.99901 19.2054 1.99901 18.4253 2.01142C17.7814 2.02384 17.1252 2.03626 16.6546 2.03626C16.3698 2.02384 16.085 2.0735 15.8002 2.11075C15.3297 1.6141 14.8344 1.17954 14.2648 0.88155C13.4971 0.459399 12.655 0.186243 11.7511 0.0869134C11.2434 0.0372487 10.7357 0 10.2404 0L8.87834 0.0124165C8.38304 0.0248327 7.87535 0.0496649 7.2686 0.0869134C6.83521 0.124162 6.40182 0.186243 5.96842 0.248324C5.13879 0.384902 4.35868 0.658058 3.59096 1.10504C2.55082 1.72585 1.75833 2.63223 1.30018 3.71244C1.15158 4.07251 1.00299 4.445 0.891549 4.73057C0.718192 5.15272 0.594366 5.5997 0.507687 6.22051L0.359096 9.16315C0.334331 9.87087 0.2848 10.5786 0.210505 11.2739C0.123826 12.1182 0.061913 12.9501 0.0371478 13.7944C0.0123825 14.5766 0 15.3588 0 16.1535L0.0371478 20.4991C0.0495304 20.8716 0.0742956 21.2441 0.136209 21.7407C0.23527 22.3616 0.396244 22.9575 0.631514 23.5659C0.903931 24.224 1.31256 24.7827 1.77072 25.2669C1.60974 25.5898 1.43638 25.9002 1.31256 26.2478C0.941079 27.266 0.75534 28.3337 0.75534 29.414C0.75534 30.0596 0.829636 30.7425 0.99061 31.4502C1.15158 32.1455 1.37447 32.816 1.64689 33.3747C1.65927 33.412 1.68404 33.4492 1.69642 33.474C1.64689 33.5858 1.58498 33.6975 1.53545 33.8093C1.36209 34.2066 1.20111 34.5915 1.00299 35.1875C0.80487 35.8704 0.693427 36.5657 0.681044 37.261C0.668662 37.7204 0.681044 38.1922 0.70581 38.6889C0.730575 39.1358 0.767722 39.5952 0.817253 40.0422C0.854401 40.3526 0.879166 40.6382 0.891549 40.8493C0.916314 41.4452 0.953462 42.0288 1.01538 42.5875C1.11444 43.5436 1.37447 44.4872 1.85739 45.5053C2.29079 46.3248 2.848 47.0698 3.55381 47.7154C4.21009 48.3114 4.95305 48.808 5.81983 49.2054C6.48849 49.5034 7.18192 49.6896 7.88773 49.7765L8.94025 49.9007C9.49747 49.9628 10.0547 50 10.6243 50C11.0453 50 11.4787 49.9876 11.9121 49.9503L12.3702 49.9007C12.6922 49.8758 13.0389 49.8138 13.3485 49.7268C14.1533 49.5282 14.9211 49.1929 15.6393 48.746C16.0107 48.5101 16.3822 48.2493 16.7537 47.9886C16.8404 47.9389 16.9023 47.852 16.989 47.7899C17.0137 47.8148 17.0261 47.8396 17.0509 47.8644C17.9672 48.8453 19.1559 49.4661 20.5056 49.6648C21.1248 49.7517 21.6944 49.7641 22.2268 49.7889C23.7499 49.8386 25.0872 49.8138 26.8331 49.851L29.4335 49.7889C29.7431 49.7765 30.0526 49.7765 30.3127 49.7765C30.9689 49.8013 31.6005 49.7641 32.1205 49.6648C32.6158 49.7144 33.1111 49.7393 33.6064 49.7144C34.2999 49.6896 34.9685 49.5778 35.6124 49.3668C35.6867 49.3419 35.7486 49.2799 35.8229 49.255C36.1077 49.3792 36.3801 49.5158 36.6897 49.6027C37.3212 49.7641 37.9775 49.851 38.6338 49.851C39.4263 49.851 40.1816 49.7144 40.8998 49.4537C40.9865 49.4164 41.0732 49.3668 41.1598 49.3295C42.1381 49.7517 43.1534 49.9876 44.1317 49.9876C44.9489 49.9876 45.7414 49.851 46.4596 49.5654L47.7102 49.1433L48.317 48.5473C49.6296 47.4547 50.3601 45.9275 50.3601 44.2016L50.3477 43.0966C50.3849 42.6993 50.3849 42.302 50.3849 41.9916C50.5211 41.2466 50.5706 40.514 50.5335 39.7566C50.5211 39.5083 50.5211 39.2724 50.5211 39.2724C50.5706 38.9372 50.5954 38.6019 50.6078 38.4033L50.7564 36.8264C50.7811 35.5972 50.7811 34.3804 50.7811 33.1885C50.7811 33.114 50.7811 33.0395 50.7811 32.9774C51.4869 32.7912 52.0318 32.4808 52.3909 32.2076C53.2577 31.5744 54.3102 30.3576 54.3721 28.4827C54.434 28.0482 54.4712 27.6136 54.4835 27.179L54.5455 25.8381C54.5331 25.3414 54.5083 24.8572 54.4092 24.3854Z" fill="#4194E1"/>
<path d="M13.0118 15.7374C12.9734 16.4921 12.9734 17.2467 12.999 18.0141C13.0246 18.7816 12.9351 19.5234 12.7432 20.2653C12.6153 20.7513 12.3979 21.2246 12.1165 21.6722C11.8351 22.1199 11.4386 22.4013 10.9525 22.5292C10.8246 22.5804 10.6839 22.6059 10.5432 22.6187C10.4025 22.6315 10.2618 22.6443 10.1339 22.6571C9.68627 22.6955 9.2386 22.7083 8.79093 22.7211C8.34326 22.7339 7.89559 22.7466 7.44792 22.785C6.98746 22.8234 6.53979 22.8362 6.10491 22.849C5.65724 22.8618 5.20957 22.8234 4.74911 22.7594C4.53167 22.7211 4.32703 22.6827 4.13517 22.6315C3.94331 22.5676 3.75145 22.478 3.57238 22.3501C3.31657 22.1711 3.12471 21.928 2.99681 21.6211C2.8689 21.3141 2.79216 21.0071 2.741 20.6746C2.70263 20.4188 2.68983 20.1502 2.67704 19.8943C2.66425 19.6385 2.66425 19.3571 2.66425 19.0885C2.66425 18.5002 2.66425 17.9118 2.65146 17.3234C2.63867 16.7351 2.63867 16.1467 2.63867 15.5583C2.63867 14.7909 2.65146 14.0235 2.67704 13.256C2.70263 12.4886 2.75379 11.734 2.84332 10.9537C2.92006 10.1352 2.98402 9.31656 3.0096 8.51075C3.04797 7.70495 3.07355 6.88635 3.11192 6.06775C3.12471 5.93985 3.15029 5.81194 3.16308 5.69683C3.17588 5.58171 3.21425 5.4666 3.26541 5.35148C3.39332 5.00614 3.53401 4.67358 3.67471 4.34103C3.8154 4.02126 4.04563 3.75266 4.37819 3.5608C4.68516 3.38174 5.03051 3.26662 5.38864 3.20267C5.74678 3.13872 6.10491 3.10034 6.47584 3.06197C6.9363 3.0236 7.38397 3.01081 7.81885 2.99802C8.26652 2.98523 8.7014 2.98523 9.14907 2.98523C9.51999 2.98523 9.90371 3.01081 10.2746 3.04918C10.6584 3.08755 11.0037 3.20267 11.3363 3.38174C11.6816 3.5608 11.963 3.81662 12.1804 4.13638C12.3979 4.45614 12.5641 4.80149 12.6793 5.18521C12.7944 5.56892 12.8583 5.93985 12.8839 6.32357C12.9095 6.70728 12.9223 7.091 12.9479 7.46193C12.9862 8.06308 12.999 8.66424 13.0118 9.26539C13.0246 9.86655 13.0118 10.4677 12.999 11.0689C12.9862 11.4526 12.9607 11.8235 12.9479 12.1816C12.9351 12.5526 12.9095 12.9235 12.8967 13.2944C12.8839 13.6398 12.8711 13.9851 12.8583 14.3432C12.8455 14.7014 12.8839 15.0467 12.9734 15.4049C13.0118 15.4688 13.0246 15.5328 13.0246 15.5839C13.0118 15.6351 13.0118 15.6863 13.0118 15.7374ZM9.05953 16.8118C9.07232 16.4409 9.08511 16.0572 9.08511 15.6863C9.08511 15.3025 9.08511 14.9316 9.08511 14.5607C9.08511 14.2153 9.07232 13.87 9.05953 13.5246C9.04674 13.1793 9.02116 12.834 9.00837 12.4886C8.97 12.0026 8.94442 11.5037 8.91884 11.0049C8.89325 10.5061 8.86767 10.0072 8.8293 9.5212C8.81651 9.30377 8.77814 9.11191 8.73977 8.92005C8.7014 8.72819 8.66303 8.56191 8.62465 8.39564C8.49675 8.22936 8.35605 8.13982 8.21536 8.10145C8.07466 8.06308 7.93396 8.06308 7.80606 8.07587C7.57583 8.08866 7.37118 8.1782 7.19211 8.33168C7.01304 8.48517 6.92351 8.66424 6.92351 8.8561C6.91072 9.22702 6.89793 9.61074 6.88514 9.98166C6.87235 10.3526 6.88514 10.7363 6.89793 11.1072C6.89793 11.4142 6.92351 11.7212 6.96188 12.0282C7.00025 12.3351 7.02583 12.6421 7.02583 12.9491C7.02583 13.4607 7.01304 13.9595 7.00025 14.4712C6.98746 14.9828 6.96188 15.4816 6.94909 15.9932V17.5665C6.9363 17.7455 6.97467 17.8862 7.06421 17.9886C7.15374 18.0909 7.26885 18.1804 7.42234 18.2572C7.48629 18.2955 7.58862 18.3211 7.71652 18.3595C7.84443 18.3211 7.97233 18.2955 8.08745 18.2572C8.20257 18.2188 8.31768 18.1932 8.4328 18.1548C8.61186 18.0909 8.75256 18.0013 8.86768 17.8862C8.97 17.7711 9.02116 17.6176 9.00837 17.413C9.00837 17.3107 9.02116 17.2083 9.03395 17.106C9.04674 17.0165 9.05953 16.9141 9.05953 16.8118Z" fill="white"/>
<path d="M19.7652 15.3409C20.0722 16.2746 20.4048 17.1955 20.7373 18.1165C21.0699 19.0374 21.4536 19.9455 21.8757 20.8409C21.978 21.0583 22.0547 21.2885 22.1315 21.5315C22.2082 21.7746 22.1826 22.0048 22.042 22.1967C21.9652 22.3501 21.8373 22.4525 21.671 22.5164C21.5047 22.5804 21.3385 22.6315 21.1594 22.6443C20.9803 22.6699 20.7885 22.6827 20.6094 22.6699C20.4176 22.6571 20.2513 22.6571 20.1106 22.6571C19.9699 22.6571 19.8164 22.6443 19.6629 22.6187C19.5094 22.5932 19.3687 22.5292 19.228 22.4397C19.1257 22.3629 19.049 22.2734 18.9978 22.1711C18.9466 22.0688 18.8827 21.9664 18.8315 21.8513C18.6525 21.4804 18.4734 21.0967 18.3199 20.7129C18.1536 20.3292 17.9873 19.9327 17.8339 19.549C17.6676 19.2037 17.5269 18.8455 17.3862 18.4746C17.2583 18.1037 17.092 17.7583 16.9129 17.4258C16.9001 17.656 16.8746 17.8734 16.849 18.0909C16.8234 18.3083 16.8106 18.5258 16.8106 18.756C16.849 19.242 16.849 19.7409 16.849 20.2397C16.849 20.7385 16.7978 21.2374 16.7211 21.7234C16.6443 22.1199 16.4269 22.3629 16.0816 22.4653C15.7362 22.542 15.3909 22.5932 15.0455 22.6187C14.7002 22.6443 14.3548 22.5804 14.0095 22.4525C13.8176 22.3757 13.6769 22.2862 13.613 22.1967C13.549 22.1071 13.5106 21.9408 13.5106 21.7106C13.5234 21.2629 13.549 20.8281 13.5618 20.3804C13.5746 19.9327 13.5874 19.4851 13.5874 19.0246C13.5874 18.6409 13.5746 18.2827 13.5618 17.9246C13.549 17.5665 13.5362 17.1955 13.5362 16.8246C13.5234 16.6328 13.5106 16.4281 13.4979 16.2363C13.4851 16.0444 13.4979 15.8397 13.5106 15.6479L13.6641 14.0235C13.6769 13.9212 13.6897 13.8188 13.6897 13.7165C13.6897 13.6142 13.6897 13.4991 13.6897 13.384C13.6386 12.8595 13.6258 12.3351 13.6258 11.8107C13.6386 11.2863 13.6513 10.7619 13.6897 10.2375V9.99446C13.7281 9.52121 13.7409 9.03517 13.7537 8.56192C13.7665 8.08867 13.7793 7.60263 13.792 7.12938C13.8048 6.89915 13.8304 6.68171 13.8688 6.45148C13.9072 6.23404 13.9711 6.0166 14.0606 5.79916C14.163 5.56893 14.3037 5.40265 14.5083 5.31312C14.8792 5.13405 15.2374 5.05731 15.5699 5.0701C16.2862 5.0701 17.0025 5.05731 17.6932 5.04452C18.3839 5.03173 19.1001 5.03172 19.8164 5.0701C20.1873 5.08289 20.5582 5.14684 20.9164 5.26196C21.2745 5.37707 21.5687 5.59451 21.7989 5.90148C21.9652 6.13171 22.0675 6.38752 22.1315 6.66892C22.1954 6.95031 22.221 7.2317 22.221 7.52589C22.221 7.82007 22.2082 8.11425 22.1699 8.40843C22.1315 8.70262 22.1059 8.98401 22.0931 9.23982C22.0547 9.66191 22.042 10.084 22.042 10.4805C22.042 10.877 22.0292 11.2991 21.9908 11.7212C21.978 12.0154 21.9524 12.3096 21.9268 12.6037C21.9013 12.8979 21.8373 13.1793 21.7478 13.4607C21.671 13.7421 21.5303 13.9979 21.3385 14.2281C21.1466 14.4584 20.9164 14.6246 20.635 14.7398C20.392 14.8293 20.1489 14.8677 19.8931 14.8932C19.8548 14.906 19.8292 14.9188 19.8036 14.9188C19.778 14.9188 19.7524 14.9316 19.7141 14.97C19.6757 15.0084 19.6629 15.0467 19.6757 15.0979C19.6885 15.1491 19.7013 15.2002 19.7141 15.2514C19.7141 15.2898 19.7141 15.3025 19.7269 15.3153C19.7397 15.3281 19.7652 15.3025 19.7652 15.3409ZM18.3327 11.3375C18.5118 11.2351 18.6269 11.12 18.6652 10.9793C18.7036 10.8386 18.7292 10.6852 18.7548 10.4933C18.7548 10.3142 18.7548 10.1352 18.7676 9.96888C18.7804 9.8026 18.7804 9.62354 18.7804 9.44447C18.7804 9.36772 18.7804 9.2654 18.7804 9.17587C18.7804 9.08633 18.7676 8.98401 18.7548 8.90726C18.7548 8.7282 18.6525 8.62587 18.4606 8.5875C18.3327 8.54913 18.2048 8.52355 18.0769 8.49797C17.949 8.47239 17.8211 8.4468 17.6932 8.40843C17.5653 8.39564 17.4374 8.37006 17.3222 8.35727C17.2071 8.34448 17.092 8.37006 16.9769 8.45959C16.9129 8.63866 16.8618 8.88168 16.8234 9.17587C16.785 9.47005 16.7722 9.76423 16.7595 10.0712C16.7467 10.3782 16.7595 10.6596 16.7722 10.941C16.785 11.2224 16.8234 11.427 16.8746 11.5549C17.1176 11.5933 17.3606 11.5677 17.6036 11.491C17.8467 11.427 18.0897 11.3758 18.3327 11.3375Z" fill="white"/>
<path d="M26.4419 5.03171C26.7489 5.03171 27.0558 5.01892 27.3628 5.00613C27.6698 4.99334 27.9768 4.99334 28.2837 5.00613C28.7442 5.01892 29.1535 5.13403 29.5116 5.32589C29.8698 5.51775 30.1895 5.78635 30.4709 6.10612C30.5477 6.20844 30.6244 6.31077 30.6756 6.43867C30.7395 6.56658 30.7779 6.69448 30.8163 6.82239C30.9953 7.29564 31.136 7.78168 31.2384 8.26772C31.3407 8.75376 31.3663 9.26538 31.3407 9.7898C31.3023 10.391 31.3023 10.9921 31.3279 11.5933C31.3535 12.1944 31.3791 12.7956 31.4174 13.3967C31.4558 13.87 31.443 14.3304 31.3791 14.7781C31.3151 15.2258 31.2511 15.6862 31.1744 16.1467C31.136 16.3258 31.1105 16.5048 31.0977 16.6711C31.0849 16.8374 31.0465 17.0165 30.9953 17.1955C30.893 17.5665 30.7907 17.9374 30.6756 18.3083C30.5605 18.6792 30.4453 19.0502 30.3302 19.4211C30.3302 19.4595 30.3174 19.485 30.3046 19.5234C30.2919 19.5618 30.2663 19.5874 30.2535 19.6257C30.0105 20.0222 29.7291 20.3804 29.4349 20.7129C29.1279 21.0455 28.7698 21.2885 28.3477 21.4804C28.1814 21.5443 28.0279 21.6083 27.8616 21.685C27.6954 21.7618 27.5547 21.8385 27.414 21.9152C27.1838 22.0304 26.9535 22.1071 26.7105 22.1583C26.4675 22.2094 26.2372 22.2478 26.007 22.2862C25.6745 22.3245 25.3419 22.3501 25.0094 22.3629C24.6768 22.3757 24.3442 22.4013 24.0117 22.4141C23.9349 22.4269 23.8454 22.4269 23.7815 22.4141C23.7047 22.4013 23.628 22.3757 23.5512 22.3629C23.1036 22.2606 22.8733 21.992 22.835 21.5315C22.8222 21.4804 22.8094 21.4036 22.8094 21.2885C22.8478 21.0327 22.8477 20.7641 22.835 20.5083C22.8222 20.2525 22.7966 19.9839 22.7838 19.7281C22.771 19.3571 22.7582 18.9862 22.7582 18.6281C22.7582 18.2699 22.7454 17.899 22.7326 17.5281V15.9293C22.7198 15.5967 22.7071 15.2769 22.7071 14.9444C22.7071 14.6118 22.7454 14.2921 22.8094 13.9595V13.6653C22.7454 13.1409 22.7071 12.6165 22.7071 12.1049C22.7071 11.5933 22.7198 11.0689 22.7326 10.5444C22.7454 9.96886 22.771 9.40608 22.7838 8.8433C22.7966 8.28051 22.8222 7.70494 22.8605 7.14215C22.8733 6.97587 22.8861 6.82239 22.8733 6.6689C22.8605 6.51541 22.8733 6.36193 22.8861 6.20844C22.9245 5.95263 23.0268 5.7224 23.1931 5.54333C23.3594 5.36426 23.5768 5.26194 23.8198 5.22357C24.0501 5.1852 24.2675 5.15961 24.4849 5.13403C24.7024 5.10845 24.9198 5.09566 25.1501 5.09566C25.3803 5.09566 25.5977 5.09566 25.8152 5.08287C26.0326 5.07008 26.2372 5.07008 26.4547 5.07008V5.03171H26.4419ZM26.3652 18.6792C26.6977 18.6025 27.0047 18.449 27.3244 18.2316C27.5419 18.0653 27.6826 17.8478 27.7721 17.5665C27.8233 17.3874 27.8617 17.2083 27.8872 17.0293C27.9128 16.8502 27.9128 16.6583 27.9 16.4665C27.9 16.3897 27.9 16.3002 27.9 16.1979C27.9 16.0955 27.9128 16.006 27.9256 15.9037C27.964 15.6095 27.9896 15.3153 28.0279 15.0339C28.0663 14.7525 28.0663 14.4456 28.0535 14.1386C28.0407 14.0746 28.0279 14.0107 28.0407 13.9467C28.0535 13.8828 28.0663 13.806 28.0791 13.7293C28.143 13.3967 28.1814 13.077 28.1942 12.7572C28.207 12.4374 28.1942 12.1177 28.1814 11.7851C28.1686 11.3119 28.1558 10.8258 28.143 10.3526C28.1303 9.86654 28.1175 9.39329 28.0791 8.92004V8.8433C28.0023 8.44679 27.9 8.19098 27.7721 8.07586C27.6442 7.94796 27.4012 7.884 27.0175 7.87121C26.9407 7.85842 26.864 7.84563 26.8 7.85842C26.7361 7.87121 26.6593 7.87121 26.5826 7.87121C26.5698 7.94796 26.557 8.0247 26.557 8.06307C26.557 8.11423 26.5442 8.1654 26.5314 8.22935C26.5314 8.65144 26.5314 9.07353 26.5314 9.47003C26.5314 9.86654 26.5186 10.2886 26.5058 10.7107C26.5058 11.0944 26.4931 11.4654 26.4803 11.8491C26.4675 12.2328 26.4419 12.6165 26.4291 12.9874C26.3907 13.5246 26.3779 14.0618 26.3524 14.599C26.3396 15.1363 26.314 15.6607 26.3012 16.2107C26.2884 16.6072 26.2884 16.9909 26.3012 17.3746C26.314 17.7583 26.3396 18.142 26.3524 18.513C26.3396 18.5769 26.3524 18.6281 26.3652 18.6792Z" fill="white"/>
<path d="M40.6651 10.5061C40.4477 10.7619 40.2047 10.9282 39.9233 10.9665C39.821 10.9793 39.7314 11.0049 39.6419 11.0433C39.5523 11.0817 39.4628 11.1072 39.3861 11.12C39.1558 11.1328 38.9256 11.1456 38.6826 11.1456C38.4396 11.1456 38.2093 11.1584 37.9535 11.1712C37.6082 11.0049 37.4291 10.7235 37.4163 10.3398C37.378 10.1607 37.3524 9.98166 37.3268 9.82818C37.3012 9.6619 37.2756 9.49562 37.2373 9.31655C36.9559 9.27818 36.6873 9.27818 36.4442 9.29097C36.1884 9.30376 35.9198 9.38051 35.6512 9.50841C35.6129 9.58516 35.5873 9.67469 35.5617 9.75143C35.5361 9.82818 35.5105 9.91771 35.4977 9.99445V11.7084H35.8431C36.0733 11.6956 36.2908 11.6828 36.5082 11.6828C36.7256 11.6828 36.9431 11.67 37.1733 11.6572C37.5187 11.6189 37.7873 11.7212 37.9919 11.9258C38.1966 12.1433 38.2989 12.3863 38.2989 12.6677C38.3117 12.8979 38.3372 13.1281 38.3628 13.3712C38.3884 13.6142 38.4012 13.8444 38.4268 14.0746C38.4268 14.2025 38.4268 14.3432 38.414 14.4839C38.4012 14.6246 38.3884 14.7653 38.3756 14.8932C38.3245 15.2258 38.1454 15.4304 37.8384 15.5072C37.7233 15.5456 37.6082 15.5711 37.5059 15.5839C37.4035 15.5967 37.3012 15.6223 37.1989 15.6351C37.0326 15.6479 36.8791 15.6607 36.7256 15.6607C36.5849 15.6607 36.4315 15.6607 36.278 15.6607C36.1756 15.6735 36.0861 15.6863 35.9838 15.699C35.8815 15.7118 35.7919 15.7246 35.6896 15.763C35.6512 15.8269 35.6384 15.8781 35.6384 15.9165V17.899C35.6768 18.3595 35.9198 18.6153 36.3803 18.6664H36.4826C36.6105 18.6664 36.7384 18.6664 36.8663 18.6664C36.9942 18.6664 37.1221 18.6792 37.25 18.692C37.378 18.513 37.4419 18.3083 37.4291 18.0909C37.4163 17.8734 37.4419 17.6432 37.5314 17.3874C37.5826 17.2851 37.7233 17.2211 37.9535 17.17C38.2733 17.0932 38.6186 17.0421 38.964 17.0165C39.3093 16.9909 39.6547 16.9909 40 16.9909C40.1535 16.9781 40.2686 17.0165 40.3709 17.106C40.4733 17.1955 40.5628 17.2979 40.6395 17.413C40.7419 17.5537 40.793 17.7199 40.793 17.8734C40.8314 18.1037 40.8442 18.3211 40.8698 18.5513C40.8826 18.7688 40.8954 18.999 40.8954 19.2292C40.8954 19.4723 40.8954 19.7153 40.8954 19.9711C40.8954 20.2141 40.8826 20.4571 40.8442 20.7129C40.793 21.1094 40.614 21.4292 40.307 21.6722C39.9233 21.9536 39.4884 22.1199 38.964 22.1839C38.4524 22.2478 37.9663 22.299 37.5314 22.3373C36.4954 22.4397 35.485 22.4141 34.4873 22.2606C34.2059 22.2222 33.9373 22.1711 33.6687 22.0943C33.4001 22.0176 33.1571 21.8769 32.9396 21.6978C32.6966 21.4676 32.5175 21.199 32.4152 20.892C32.3129 20.585 32.2234 20.2781 32.1594 19.9455C32.0315 19.4211 31.9675 18.8839 31.9931 18.3339C32.0059 17.7839 32.0059 17.2467 31.9931 16.6967C31.9803 15.5967 31.9803 14.4839 31.9931 13.3584C32.0059 12.9363 32.0315 12.5142 32.0571 12.1049C32.0827 11.6956 32.1082 11.2735 32.1466 10.8514C32.1594 10.4549 32.1722 10.0456 32.1594 9.63632C32.1466 9.22702 32.1722 8.80493 32.2234 8.40842C32.2745 8.01192 32.3641 7.61541 32.5048 7.24448C32.6454 6.87356 32.8629 6.52821 33.1826 6.20845C33.4129 5.96543 33.6815 5.77357 33.9757 5.63287C34.2826 5.49218 34.5896 5.38985 34.9222 5.30032C35.5233 5.17241 36.1501 5.10846 36.7768 5.10846C37.4035 5.12125 38.0303 5.12125 38.657 5.12125C38.8361 5.12125 39.0151 5.13404 39.1686 5.14683C39.3221 5.15962 39.5012 5.1852 39.6547 5.22357C40.064 5.27474 40.3454 5.47939 40.4861 5.83752C40.5372 5.95264 40.5884 6.06775 40.6395 6.18287C40.6907 6.29798 40.7419 6.4131 40.7802 6.52821C40.8314 6.65612 40.8442 6.79681 40.8442 6.9503C40.8442 7.10379 40.8186 7.23169 40.7802 7.37239C40.7674 7.44913 40.7547 7.53867 40.7547 7.61541C40.7547 7.69215 40.7547 7.78169 40.7547 7.85843C40.7419 8.26773 40.7291 8.67702 40.7291 9.08632C40.7291 9.49562 40.7291 9.90492 40.7291 10.3142C40.7291 10.3526 40.7291 10.3782 40.7163 10.4293C40.6651 10.4293 40.6651 10.4677 40.6651 10.5061Z" fill="white"/>
<path d="M47.6104 15.3409C47.9174 16.2746 48.2499 17.1955 48.5825 18.1165C48.915 19.0374 49.2987 19.9455 49.7208 20.8409C49.8232 21.0583 49.8999 21.2885 49.9766 21.5315C50.0534 21.7746 50.0278 22.0048 49.8871 22.1967C49.8104 22.3501 49.6825 22.4525 49.5162 22.5164C49.3499 22.5804 49.1836 22.6315 49.0046 22.6443C48.8255 22.6699 48.6336 22.6827 48.4546 22.6699C48.2627 22.6571 48.0964 22.6571 47.9557 22.6571C47.815 22.6571 47.6615 22.6443 47.5081 22.6187C47.3546 22.5932 47.2139 22.5292 47.0732 22.4397C46.9709 22.3629 46.8941 22.2734 46.843 22.1711C46.7918 22.0688 46.7278 21.9664 46.6767 21.8513C46.4976 21.4804 46.3185 21.0967 46.1651 20.7129C45.9988 20.3292 45.8325 19.9327 45.679 19.549C45.5127 19.2037 45.372 18.8455 45.2313 18.4746C45.1034 18.1037 44.9372 17.7583 44.7581 17.4258C44.7453 17.656 44.7197 17.8734 44.6941 18.0909C44.6686 18.3083 44.6558 18.5258 44.6558 18.756C44.6941 19.242 44.6941 19.7409 44.6941 20.2397C44.6941 20.7385 44.643 21.2374 44.5662 21.7234C44.4895 22.1199 44.272 22.3629 43.9267 22.4653C43.5814 22.542 43.236 22.5932 42.8907 22.6187C42.5453 22.6443 42.2 22.5804 41.8546 22.4525C41.6628 22.3757 41.5221 22.2862 41.4581 22.1967C41.3942 22.1071 41.3558 21.9408 41.3558 21.7106C41.3686 21.2629 41.3942 20.8281 41.407 20.3804C41.4198 19.9327 41.4325 19.4851 41.4325 19.0246C41.4325 18.6409 41.4198 18.2827 41.407 17.9246C41.3942 17.5665 41.3814 17.1955 41.3814 16.8246C41.3686 16.6328 41.3558 16.4281 41.343 16.2363C41.3302 16.0444 41.343 15.8397 41.3558 15.6479L41.5093 14.0235C41.5221 13.9212 41.5349 13.8188 41.5349 13.7165C41.5349 13.6142 41.5349 13.4991 41.5349 13.384C41.4837 12.8595 41.4709 12.3351 41.4709 11.8107C41.4837 11.2863 41.4965 10.7619 41.5349 10.2375V9.99446C41.5732 9.52121 41.586 9.03517 41.5988 8.56192C41.6116 8.08867 41.6244 7.60263 41.6372 7.12938C41.65 6.89915 41.6756 6.68171 41.7139 6.45148C41.7523 6.23404 41.8163 6.0166 41.9058 5.79916C42.0081 5.56893 42.1488 5.40265 42.3535 5.31312C42.7244 5.13405 43.0825 5.05731 43.4151 5.0701C44.1314 5.0701 44.8476 5.05731 45.5383 5.04452C46.229 5.03173 46.9453 5.03172 47.6615 5.0701C48.0325 5.08289 48.4034 5.14684 48.7615 5.26196C49.1197 5.37707 49.4139 5.59451 49.6441 5.90148C49.8104 6.13171 49.9127 6.38752 49.9766 6.66892C50.0406 6.95031 50.0662 7.2317 50.0662 7.52589C50.0662 7.82007 50.0534 8.11425 50.015 8.40843C49.9766 8.70262 49.9511 8.98401 49.9383 9.23982C49.8999 9.66191 49.8871 10.084 49.8871 10.4805C49.8871 10.877 49.8743 11.2991 49.8359 11.7212C49.8232 12.0154 49.7976 12.3096 49.772 12.6037C49.7464 12.8979 49.6825 13.1793 49.5929 13.4607C49.5162 13.7421 49.3755 13.9979 49.1836 14.2281C48.9918 14.4584 48.7615 14.6246 48.4801 14.7398C48.2371 14.8293 47.9941 14.8677 47.7383 14.8932C47.6999 14.906 47.6743 14.9188 47.6488 14.9188C47.6232 14.9188 47.5976 14.9316 47.5592 14.97C47.5209 15.0084 47.5081 15.0467 47.5209 15.0979C47.5336 15.1491 47.5464 15.2002 47.5592 15.2514C47.5592 15.2898 47.5592 15.3025 47.572 15.3153C47.5848 15.3281 47.6104 15.3025 47.6104 15.3409ZM46.1906 11.3375C46.3697 11.2351 46.4848 11.12 46.5232 10.9793C46.5616 10.8386 46.5871 10.6852 46.6127 10.4933C46.6127 10.3142 46.6127 10.1352 46.6255 9.96888C46.6383 9.8026 46.6383 9.62354 46.6383 9.44447C46.6383 9.36772 46.6383 9.2654 46.6383 9.17587C46.6383 9.08633 46.6255 8.98401 46.6127 8.90726C46.6127 8.7282 46.5104 8.62587 46.3185 8.5875C46.1906 8.54913 46.0627 8.52355 45.9348 8.49797C45.8069 8.47239 45.679 8.4468 45.5511 8.40843C45.4232 8.39564 45.2953 8.37006 45.1802 8.35727C45.0651 8.34448 44.95 8.37006 44.8348 8.45959C44.7709 8.63866 44.7197 8.88168 44.6813 9.17587C44.643 9.47005 44.6302 9.76423 44.6174 10.0712C44.6046 10.3782 44.6174 10.6596 44.6302 10.941C44.643 11.2224 44.6814 11.427 44.7325 11.5549C44.9755 11.5933 45.2185 11.5677 45.4616 11.491C45.7046 11.427 45.9476 11.3758 46.1906 11.3375Z" fill="white"/>
<path d="M17.5652 35.8569C17.6036 35.9593 17.6548 36.0616 17.6931 36.1639C17.7315 36.2663 17.7443 36.3686 17.7315 36.4709C17.6931 36.6372 17.6036 36.7779 17.4629 36.8802C17.3222 36.9825 17.1815 37.0593 17.0152 37.1232C16.8106 37.2128 16.6059 37.2895 16.4269 37.3534C16.235 37.4302 16.0559 37.4941 15.8641 37.5581C15.8897 37.7883 15.9024 38.0186 15.9024 38.2488C15.9024 38.479 15.9024 38.7092 15.9024 38.9395C15.9024 39.2976 15.8897 39.6302 15.8641 39.9627C15.8385 40.2953 15.8001 40.6406 15.7362 40.9988C15.6978 41.3313 15.6211 41.6639 15.5059 41.9836C15.3908 42.3034 15.2629 42.6232 15.1222 42.9301C15.0199 43.1732 14.9048 43.4162 14.7769 43.6464C14.649 43.8766 14.4955 44.0813 14.3164 44.2731C14.1501 44.5034 13.9071 44.6952 13.6001 44.8615C13.242 45.1301 12.8839 45.3859 12.5257 45.6161C12.1548 45.8464 11.7711 46.0127 11.3618 46.115C11.2083 46.1534 11.0804 46.1789 10.9525 46.1917C10.8246 46.2045 10.6967 46.2173 10.5432 46.2429C9.75019 46.3068 8.99554 46.294 8.26648 46.2173C7.90835 46.1789 7.57579 46.1278 7.24324 46.0894C6.91068 46.051 6.57813 45.9487 6.24557 45.808C5.78511 45.6034 5.37581 45.3348 5.01768 45.0022C4.65954 44.6696 4.35257 44.2859 4.13513 43.851C3.9049 43.3778 3.7642 42.879 3.71304 42.3546C3.66188 41.8301 3.62351 41.3185 3.59793 40.7941C3.57235 40.436 3.54677 40.065 3.50839 39.6941C3.47002 39.3104 3.43165 38.9139 3.41886 38.5302C3.39328 38.1337 3.39328 37.75 3.40607 37.379C3.41886 37.0081 3.47002 36.6372 3.57235 36.2918C3.67467 35.9976 3.78979 35.7035 3.93048 35.4093C4.07118 35.1023 4.21187 34.8337 4.37815 34.5779C4.54443 34.3349 4.76187 34.0663 5.03047 33.7977C5.05605 33.7721 5.09442 33.7337 5.15838 33.657C5.22233 33.5802 5.29907 33.5035 5.37581 33.4395C5.46535 33.3628 5.5293 33.2988 5.59325 33.2477C5.65721 33.1965 5.69558 33.1837 5.72116 33.1965C5.32465 33.0686 4.9921 32.864 4.71071 32.557C4.42931 32.25 4.19908 31.9175 4.02002 31.5465C3.84095 31.1756 3.71304 30.7791 3.61072 30.357C3.52118 29.9349 3.47002 29.5512 3.47002 29.1675C3.47002 28.528 3.58514 27.9012 3.80258 27.3001C4.02002 26.6989 4.33978 26.1489 4.74908 25.6501C4.81303 25.5861 4.87698 25.5222 4.92815 25.4454C4.9921 25.3687 5.05605 25.3047 5.12 25.2408C5.47814 24.9338 5.87465 24.6908 6.32232 24.5245C6.76999 24.3582 7.24324 24.2559 7.72928 24.192C8.21532 24.1408 8.70136 24.128 9.20019 24.1408C9.68623 24.1664 10.1467 24.1792 10.5816 24.2048C11.0548 24.2431 11.5409 24.3071 12.0141 24.371C12.4874 24.4478 12.935 24.5885 13.3571 24.7931C14.2908 25.2536 14.9559 25.9571 15.3525 26.9164C15.5571 27.3896 15.685 27.9012 15.7106 28.4256C15.7362 28.9501 15.7362 29.4745 15.6978 29.9733C15.6594 30.4338 15.5699 30.8558 15.442 31.2396C15.3141 31.6233 15.0838 31.9942 14.7513 32.3523C14.4571 32.6465 14.1373 32.8895 13.7664 33.107C13.4083 33.3116 13.0246 33.5035 12.6281 33.6698C12.2571 33.836 11.8734 33.9895 11.4769 34.1302C11.0804 34.2837 10.7095 34.4372 10.3513 34.6291C10.1851 34.7186 10.0316 34.7953 9.90367 34.8721C9.76298 34.9616 9.63507 35.0511 9.48158 35.1535C9.35368 35.2558 9.23856 35.3581 9.11066 35.4477C8.98275 35.5372 8.86764 35.6523 8.76531 35.7802C8.57345 36.0104 8.43276 36.2535 8.33043 36.5349C8.22811 36.8035 8.16416 37.0848 8.13858 37.379C8.13858 37.7116 8.13858 38.0441 8.12578 38.3639C8.11299 38.6837 8.11299 39.0162 8.11299 39.3488C8.11299 39.579 8.08741 39.8092 8.04904 40.0523C8.01067 40.2953 7.99788 40.5255 7.99788 40.7557C8.01067 40.986 8.04904 41.2034 8.12578 41.4081C8.20253 41.6127 8.34322 41.7918 8.57345 41.9325C8.90601 42.1627 9.30252 42.265 9.73739 42.2267C10.1851 42.2011 10.556 42.0348 10.8374 41.7406C10.9781 41.5743 11.0804 41.3953 11.1444 41.1906C11.2083 40.9988 11.2595 40.7941 11.2978 40.5895C11.3362 40.4616 11.3618 40.3336 11.3746 40.193C11.3874 40.0523 11.4002 39.9244 11.4257 39.8092C11.2978 39.886 11.1571 39.9883 10.9909 40.1162C10.863 40.2441 10.7351 40.2825 10.6199 40.2441C10.5944 40.2441 10.5816 40.2313 10.556 40.2057C10.5176 40.1674 10.4792 40.129 10.4665 40.0778C10.3002 39.7197 10.1339 39.3871 9.98042 39.0674C9.82693 38.7476 9.64786 38.4151 9.46879 38.0825C9.34089 37.8523 9.3281 37.686 9.41763 37.5709C9.50716 37.4558 9.63507 37.3151 9.81414 37.1488C10.0188 36.9825 10.2362 36.829 10.4665 36.6883C10.6967 36.5476 10.9269 36.4197 11.1827 36.3174C11.4385 36.2151 11.656 36.0872 11.8734 35.9465C12.0781 35.8058 12.2955 35.6651 12.5257 35.5372C13.549 34.936 14.585 34.4628 15.6466 34.1302C15.7362 34.1046 15.8001 34.0919 15.8641 34.0663C15.928 34.0407 16.0048 34.0279 16.0815 34.0279C16.3245 34.0279 16.542 34.143 16.7338 34.3732C16.8362 34.4756 16.9129 34.5779 16.9641 34.6802C17.0152 34.7825 17.0792 34.8849 17.1303 34.9872C17.2199 35.1535 17.2838 35.307 17.3478 35.4349C17.3989 35.5756 17.4757 35.7163 17.5652 35.8569ZM9.20019 28.0675C8.89322 28.1059 8.59904 28.221 8.33043 28.3745C8.06183 28.5408 7.92114 28.8094 7.92114 29.1803C7.92114 29.3593 7.95951 29.5384 8.04904 29.6791C8.17695 29.9349 8.3816 30.1012 8.67578 30.2035C8.76531 30.2419 8.84206 30.2675 8.93159 30.2675C9.00833 30.2675 9.09787 30.2803 9.17461 30.2931C9.25135 30.2931 9.34089 30.2931 9.41763 30.3058C9.50716 30.3186 9.58391 30.3186 9.66065 30.3186C9.85251 30.3442 10.0444 30.357 10.2362 30.357C10.4281 30.357 10.6199 30.3186 10.7862 30.2675C10.9781 30.2035 11.1188 30.1012 11.2339 29.9349C11.349 29.7814 11.4257 29.6024 11.4641 29.4233C11.5025 29.2314 11.5025 29.0524 11.4513 28.8605C11.4002 28.6687 11.2978 28.5152 11.1571 28.3873C11.0548 28.2849 10.8885 28.2082 10.6583 28.1698C10.1467 28.0163 9.66065 27.978 9.20019 28.0675Z" fill="white"/>
<path d="M34.9221 42.4953C34.9477 42.7894 34.9605 43.0708 34.9733 43.3394C34.9861 43.608 34.9733 43.8894 34.9605 44.1836C34.9605 44.3499 34.9477 44.5162 34.9349 44.6952C34.9094 44.8743 34.8454 45.0406 34.7431 45.2069C34.5768 45.5138 34.3466 45.7185 34.0524 45.808C33.7582 45.8975 33.4512 45.9615 33.1187 45.9615C32.7861 45.9743 32.4536 45.9615 32.121 45.9231C31.7885 45.8975 31.4815 45.8975 31.2129 45.9359C30.7908 45.9999 30.3815 46.0254 29.9594 46.0127C29.5373 45.9999 29.128 46.0127 28.7187 46.0254C28.2966 46.051 27.8873 46.0638 27.4653 46.0766C27.0432 46.0894 26.6339 46.0894 26.2246 46.0894C25.4315 46.0638 24.6641 46.0638 23.8967 46.0638C23.142 46.0638 22.3618 46.051 21.5816 46.0254C21.1467 46.0254 20.699 45.9999 20.2514 45.9359C19.8037 45.872 19.4328 45.6801 19.113 45.3475C18.9467 45.1813 18.8188 44.9894 18.7421 44.772C18.6653 44.5545 18.6014 44.3243 18.563 44.1069C18.5246 43.7487 18.4991 43.3906 18.5119 43.0197C18.5246 42.6487 18.5119 42.2778 18.4991 41.8941L18.4095 39.5534C18.3712 37.9546 18.3712 36.3686 18.4095 34.8209C18.4351 34.2837 18.4607 33.7465 18.4991 33.2349C18.5374 32.7105 18.5758 32.1989 18.5886 31.6744C18.627 31.2779 18.6398 30.8942 18.6398 30.5105C18.6398 30.1268 18.6398 29.7431 18.6526 29.3721C18.6526 28.8733 18.6653 28.3745 18.6781 27.8756C18.7037 27.3768 18.7677 26.8908 18.87 26.4047C18.9084 26.264 18.9467 26.1233 18.9851 25.9826C19.0107 25.8419 19.0619 25.714 19.1258 25.5861C19.2537 25.3815 19.42 25.2152 19.6246 25.0873C19.8549 24.9466 20.0979 24.8443 20.3665 24.7931C20.6351 24.742 20.9037 24.6908 21.1723 24.6524C21.4665 24.614 21.7479 24.5885 22.0293 24.5757C22.3107 24.5629 22.592 24.5501 22.8862 24.5245C23.5513 24.4989 24.2037 24.4861 24.8304 24.4861C25.4571 24.4861 26.0967 24.4861 26.749 24.4861C26.9792 24.4861 27.1966 24.4989 27.4013 24.5245C27.6059 24.5501 27.8106 24.5757 28.028 24.614C28.5524 24.678 28.8978 24.9338 29.0896 25.3943C29.128 25.535 29.192 25.6885 29.2559 25.8292C29.3327 25.9698 29.3838 26.1233 29.4222 26.264C29.4862 26.4303 29.5117 26.5966 29.5117 26.7757C29.5117 26.9547 29.4862 27.121 29.4478 27.2873C29.4222 27.3896 29.4094 27.4919 29.3966 27.5943C29.3838 27.6966 29.3838 27.7989 29.3838 27.9012C29.3583 28.4256 29.3582 28.9373 29.3582 29.4489C29.3582 29.9605 29.3582 30.4721 29.3582 30.9965C29.3582 31.0349 29.3582 31.0733 29.3455 31.1244C29.3327 31.1628 29.3327 31.214 29.3327 31.2523C29.0641 31.6105 28.7571 31.8151 28.399 31.8791C28.2966 31.9047 28.1815 31.9302 28.0664 31.9558C27.9513 31.9942 27.8362 32.0198 27.7083 32.0326C27.4141 32.0582 27.1327 32.0582 26.8385 32.0582C26.5443 32.0582 26.2501 32.0709 25.9304 32.0965C25.5339 31.8919 25.3036 31.5465 25.2397 31.0605C25.2141 30.8303 25.1885 30.6128 25.1629 30.4082C25.1374 30.2035 25.099 29.9861 25.0478 29.7559C24.7153 29.7175 24.3827 29.7047 24.0502 29.7303C23.7176 29.7559 23.3851 29.8454 23.0525 30.0117C23.0141 30.114 22.9758 30.2163 22.9246 30.3186C22.8862 30.421 22.8606 30.5233 22.8606 30.6256C22.8351 30.9837 22.8351 31.3291 22.8479 31.6872C22.8606 32.0454 22.8479 32.3907 22.8351 32.7488C22.9374 32.7488 23.0269 32.7488 23.0909 32.7616C23.1548 32.7744 23.2188 32.7616 23.2827 32.7488C23.5769 32.7488 23.8583 32.7488 24.1269 32.7488C24.3955 32.7488 24.6769 32.7361 24.9711 32.7105C25.406 32.6721 25.7513 32.7872 26.0071 33.0558C26.2501 33.3244 26.378 33.6314 26.378 33.9895C26.4036 34.2837 26.4292 34.5779 26.4548 34.8593C26.4804 35.1535 26.506 35.4477 26.5315 35.729C26.5315 36.0872 26.506 36.4197 26.442 36.7267C26.4036 37.1488 26.1862 37.4174 25.7897 37.5325C25.6618 37.5709 25.5339 37.5965 25.3932 37.6093C25.2525 37.6221 25.1118 37.6348 24.9711 37.6604C24.7792 37.686 24.6002 37.6988 24.4083 37.6988C24.2164 37.6988 24.0374 37.6988 23.8455 37.6988L23.0909 37.7883C23.0525 37.7883 23.0269 37.9162 23.0269 38.1848C23.0269 38.4406 23.0269 38.7348 23.0397 39.0546C23.0525 39.3744 23.0781 39.6685 23.1037 39.9371C23.1292 40.2057 23.1548 40.3592 23.1548 40.4104C23.1548 40.6534 23.1932 40.8708 23.2827 41.0371C23.4106 41.2929 23.6153 41.4464 23.9095 41.5104C24.2037 41.5743 24.4978 41.5871 24.7792 41.5743C27.7978 41.5487 30.7908 41.5487 33.7838 41.5743C33.9501 41.5999 34.1163 41.6127 34.2954 41.6383C34.4745 41.6639 34.6152 41.7406 34.7175 41.8813C34.807 41.9836 34.8454 42.086 34.8582 42.1755C34.8838 42.2906 34.8966 42.3929 34.9221 42.4953ZM36.1628 43.9278C36.0861 43.3522 36.0093 42.7766 35.9326 42.2139C35.8559 41.6511 35.7791 41.0883 35.7024 40.4999C35.6768 40.3976 35.664 40.2953 35.6384 40.193C35.6128 40.0906 35.5745 39.9883 35.5105 39.886C35.3698 39.6174 35.1268 39.4895 34.7942 39.515C34.4617 39.5406 34.1675 39.5406 33.9245 39.515C33.8222 39.515 33.707 39.5278 33.5919 39.5406C33.4768 39.5662 33.3745 39.6174 33.2594 39.6941C33.221 39.7325 33.1826 39.7964 33.1698 39.8604C33.1443 39.9371 33.1187 40.0011 33.0803 40.065C32.8757 40.3976 32.6071 40.5895 32.2745 40.6534C32.1978 40.679 32.121 40.679 32.0443 40.6662C31.9675 40.6534 31.8908 40.6534 31.814 40.6534C31.4175 40.6278 31.0338 40.615 30.6501 40.6022C30.2664 40.5895 29.8699 40.5767 29.4478 40.5511C29.3838 40.5511 29.3199 40.5511 29.2431 40.5383C29.1664 40.5255 29.1024 40.4999 29.0385 40.4616C28.9362 40.3976 28.8722 40.3209 28.8594 40.2185C28.7955 40.0906 28.7699 39.9627 28.7699 39.8092C28.7699 39.6558 28.7827 39.515 28.7955 39.3744C28.8594 38.8372 28.9362 38.2999 29.0385 37.7883C29.1408 37.2639 29.2303 36.7395 29.3199 36.2023C29.4222 35.6011 29.5245 34.9872 29.6269 34.386C29.7292 33.7721 29.8571 33.1581 29.9978 32.557C30.228 31.393 30.4838 30.2419 30.778 29.0907C31.0722 27.9524 31.392 26.8012 31.7501 25.6629C31.7885 25.535 31.8396 25.4071 31.8908 25.2664C31.9419 25.1257 32.0059 25.0106 32.0954 24.9082C32.2617 24.7036 32.4791 24.5501 32.735 24.4734C32.9908 24.3838 33.2594 24.3327 33.528 24.2815C34.0524 24.2048 34.5384 24.1664 35.0117 24.192C35.4721 24.2175 35.9582 24.3199 36.457 24.4989C36.5593 24.5373 36.6617 24.5885 36.764 24.6524C36.9303 24.7803 37.0454 24.9338 37.1093 25.1129C37.1733 25.3047 37.2244 25.4966 37.2628 25.7012C37.4035 26.4943 37.5442 27.2873 37.6849 28.1059C37.8256 28.9117 37.9663 29.7303 38.107 30.5361C38.4651 32.557 38.7721 34.5651 39.0279 36.586C39.2837 38.6069 39.5267 40.6278 39.757 42.6615L39.936 44.529C39.9616 44.6952 39.9744 44.8487 39.9744 44.9894C39.9744 45.1301 39.9488 45.2836 39.9105 45.4243C39.8209 45.6545 39.6419 45.8208 39.3605 45.9231C39.0791 46.0254 38.7721 46.0766 38.4396 46.0766C38.107 46.0766 37.7872 46.0382 37.4803 45.9487C37.1733 45.8592 36.9431 45.7568 36.7896 45.6034C36.5849 45.4115 36.4442 45.1813 36.3675 44.8999C36.2907 44.6185 36.2396 44.3499 36.2012 44.0813C36.2012 44.0301 36.1884 43.9662 36.1628 43.9278ZM34.8966 36.4197C34.9221 36.3942 34.9349 36.3942 34.9477 36.3942C34.9605 36.3942 34.9733 36.3814 34.9989 36.3686C35.1652 36.2662 35.2547 36.1256 35.2675 35.9465C35.2803 35.7674 35.2675 35.6139 35.2163 35.4604C35.1524 35.2302 35.114 35 35.0884 34.757C35.0628 34.5139 35.0373 34.2837 34.9989 34.0535C34.9605 33.7593 34.8966 33.4779 34.8326 33.1965C34.7559 32.9151 34.7047 32.6337 34.6663 32.3395H34.5768C34.5128 32.3395 34.4617 32.4163 34.4105 32.5698C34.3594 32.7233 34.3082 32.9023 34.2698 33.0814C34.2059 33.3116 34.1675 33.5547 34.1419 33.836C34.078 34.207 34.014 34.5779 33.9373 34.9232C33.8605 35.2814 33.7838 35.6267 33.707 35.9849C33.6687 36.0744 33.6431 36.1511 33.6431 36.2535C33.6431 36.343 33.6815 36.4069 33.771 36.4581C33.8094 36.4837 33.8733 36.4837 33.9629 36.4837C34.2059 36.5221 34.4617 36.5221 34.7175 36.4837C34.7559 36.4581 34.7942 36.4581 34.8326 36.4581C34.807 36.4453 34.8454 36.4325 34.8966 36.4197Z" fill="white"/>
<path d="M41.8673 29.2187C41.5092 29.2443 41.1638 29.257 40.8313 29.2698C40.4987 29.2826 40.1662 29.2826 39.8336 29.2826C39.3603 29.3082 39.0278 29.2315 38.8615 29.078C38.6952 28.9245 38.6057 28.6047 38.5801 28.1315C38.5545 27.7605 38.5545 27.3896 38.5545 27.0315C38.5545 26.6606 38.5545 26.3024 38.5545 25.9187C38.5545 25.8164 38.5545 25.7268 38.5545 25.6373C38.5545 25.5478 38.5801 25.4582 38.6185 25.3559C38.6441 25.292 38.6697 25.2152 38.6952 25.1385C38.7336 25.0617 38.772 24.9978 38.8359 24.9466C38.9766 24.8187 39.1301 24.7036 39.2836 24.6013C39.4371 24.499 39.6162 24.4222 39.8336 24.3838C40.2557 24.3455 40.665 24.2943 41.0743 24.2431C41.4964 24.192 41.9057 24.1408 42.3278 24.1024C42.5708 24.0641 42.8266 24.0385 43.0824 24.0385C43.3254 24.0385 43.5812 24.0257 43.837 24.0129C43.9394 23.9873 44.0545 23.9873 44.1696 24.0001C44.2847 24.0129 44.387 24.0129 44.5022 24.0129C45.2312 24.0129 45.9603 24.0129 46.7021 24.0001C47.444 23.9873 48.173 23.949 48.9021 23.885C49.0556 23.8594 49.1963 23.8466 49.337 23.8466C49.4905 23.8466 49.644 23.8466 49.8102 23.8466C50.373 23.885 50.68 24.1792 50.7439 24.7164C50.7823 24.8827 50.8079 25.0617 50.7951 25.2408C50.7823 25.4327 50.7823 25.6117 50.7823 25.7652C50.7567 26.0722 50.7439 26.392 50.7312 26.6989C50.7184 27.0059 50.6928 27.3257 50.6544 27.6326C50.6288 28.1698 50.5137 28.528 50.2835 28.6943C50.0533 28.8605 49.7207 28.9373 49.2858 28.9117C48.9788 28.9117 48.6591 28.9117 48.3393 28.9117C48.0196 28.9117 47.6998 28.8989 47.3928 28.8861H46.9579V29.3466C46.9324 30.6001 46.9324 31.8152 46.9324 33.0303C46.9324 34.2326 46.9196 35.4605 46.9068 36.7139C46.8812 36.9186 46.8684 37.1232 46.8428 37.3279C46.8172 37.5197 46.8045 37.7244 46.7789 37.9418C46.7533 38.0697 46.7533 38.1849 46.7533 38.3C46.7533 38.4151 46.7405 38.5302 46.7277 38.6581C46.6893 39.1186 46.6766 39.579 46.7021 40.0267C46.7277 40.4872 46.6893 40.9348 46.6126 41.3953C46.5486 41.6383 46.5231 41.8941 46.5359 42.1627C46.5486 42.4185 46.5359 42.6743 46.5231 42.9302V44.3883C46.5231 44.9766 46.28 45.4371 45.8068 45.7952C45.7173 45.8848 45.6405 45.9359 45.5638 45.9487C44.5022 46.3452 43.5045 46.3069 42.5708 45.8592C41.9057 45.5522 41.5603 45.015 41.5475 44.2732C41.458 42.8406 41.4324 41.4081 41.4324 39.9883C41.4452 38.5686 41.458 37.136 41.4836 35.7035C41.5092 35.0767 41.5475 34.45 41.6115 33.8361C41.6754 33.2093 41.7266 32.5954 41.765 31.9942C41.8033 31.6361 41.8417 31.2907 41.8545 30.9326C41.8801 30.5745 41.9057 30.2291 41.944 29.871V29.2187H41.8673Z" fill="white"/>
</svg>
